<svg width="180" height="180" viewBox="0 0 180 180" fill="none" xmlns="http://www.w3.org/2000/svg">
<circle opacity="0.07" cx="90" cy="90" r="80" fill="#2DDB9C"/>
<circle cx="90" cy="90" r="80" fill="url(#paint0_radial_2473_6673)"/>
<path d="M90 140C117.614 140 140 117.614 140 90C140 62.3858 117.614 40 90 40C62.3858 40 40 62.3858 40 90C40 117.614 62.3858 140 90 140Z" fill="#2DDB9C"/>
<path d="M140 90C140 117.614 117.614 140 90 140C62.3858 140 40 117.614 40 90C40 62.3858 62.3858 40 90 40C117.614 40 140 62.3858 140 90ZM50 90C50 112.091 67.9086 130 90 130C112.091 130 130 112.091 130 90C130 67.9086 112.091 50 90 50C67.9086 50 50 67.9086 50 90Z" fill="white"/>
<path fill-rule="evenodd" clip-rule="evenodd" d="M104.29 80.7009C104.743 81.1546 104.997 81.7697 104.997 82.4109C104.997 83.0521 104.743 83.6671 104.29 84.1209L88.1798 100.281C87.7299 100.73 87.1203 100.982 86.4848 100.982C85.8493 100.982 85.2397 100.73 84.7898 100.281L75.7098 91.1909C75.2563 90.7387 75.0009 90.1249 75 89.4844C74.9991 88.844 75.2526 88.2294 75.7048 87.7759C76.157 87.3224 76.7708 87.0671 77.4112 87.0661C78.0517 87.0652 78.6663 87.3187 79.1198 87.7709L86.4798 95.1409L100.88 80.7009C101.33 80.2521 101.939 80 102.575 80C103.21 80 103.82 80.2521 104.27 80.7009H104.29Z" fill="white"/>
<defs>
<radialGradient id="paint0_radial_2473_6673" cx="0" cy="0" r="1" gradientUnits="userSpaceOnUse" gradientTransform="translate(90 90) rotate(90) scale(80)">
<stop stop-color="#0EAD73"/>
<stop offset="1" stop-color="#2DDB9C" stop-opacity="0"/>
</radialGradient>
</defs>
</svg>
