<svg width="14" height="13" viewBox="0 0 14 13" fill="none" xmlns="http://www.w3.org/2000/svg">
<path fill-rule="evenodd" clip-rule="evenodd" d="M1.73103 6.31945C2.10832 7.11461 4.28923 9.75 6.95531 9.75C7.55041 9.75 8.11905 9.61422 8.65173 9.40117L7.92159 8.62406C7.62574 8.76489 7.30002 8.84723 6.95531 8.84723C5.64364 8.84723 4.58033 7.7155 4.58033 6.31945C4.58033 5.95184 4.65769 5.60589 4.79001 5.291L3.7043 4.13617C2.6627 4.93206 1.9346 5.89117 1.73103 6.31945ZM1.2662 0.264333C1.59734 -0.0881111 2.13477 -0.0881111 2.46591 0.264333L12.6444 11.0977C12.9755 11.4501 12.9755 12.0221 12.6444 12.3746C12.4788 12.5508 12.2617 12.6389 12.0445 12.6389C11.8274 12.6389 11.6103 12.5508 11.4447 12.3746L9.9376 10.7705C9.03171 11.2414 8.02268 11.5556 6.9553 11.5556C3.12955 11.5556 0 7.60211 0 6.31944C0 5.60589 0.970349 4.06683 2.48762 2.84122L1.2662 1.54122C0.935064 1.18806 0.935064 0.616778 1.2662 0.264333ZM12.179 6.31978C11.8383 5.60116 10.0273 3.39189 7.7181 2.9665L6.02915 1.16816C6.33247 1.11761 6.64053 1.08366 6.95471 1.08366C10.7811 1.08366 13.91 5.03639 13.91 6.31978C13.91 6.7755 13.5103 7.56994 12.827 8.40339L11.6273 7.1265C11.8974 6.79572 12.0908 6.50539 12.179 6.31978Z" fill="#8C949F"/>
</svg>
