<svg width="20" height="20" viewBox="0 0 20 20" fill="none" xmlns="http://www.w3.org/2000/svg">
<path d="M10 0C8.02219 0 6.08879 0.58649 4.4443 1.6853C2.79981 2.78412 1.51809 4.3459 0.761209 6.17317C0.0043329 8.00043 -0.193701 10.0111 0.192152 11.9509C0.578004 13.8907 1.53041 15.6725 2.92894 17.0711C4.32746 18.4696 6.10929 19.422 8.0491 19.8079C9.98891 20.1937 11.9996 19.9957 13.8268 19.2388C15.6541 18.4819 17.2159 17.2002 18.3147 15.5557C19.4135 13.9112 20 11.9778 20 10C20 8.68678 19.7413 7.38642 19.2388 6.17317C18.7363 4.95991 17.9997 3.85752 17.0711 2.92893C16.1425 2.00035 15.0401 1.26375 13.8268 0.761205C12.6136 0.258658 11.3132 0 10 0ZM10 18C8.41775 18 6.87104 17.5308 5.55544 16.6518C4.23985 15.7727 3.21447 14.5233 2.60897 13.0615C2.00347 11.5997 1.84504 9.99113 2.15372 8.43928C2.4624 6.88743 3.22433 5.46197 4.34315 4.34315C5.46197 3.22433 6.88743 2.4624 8.43928 2.15372C9.99113 1.84504 11.5997 2.00346 13.0615 2.60896C14.5233 3.21447 15.7727 4.23984 16.6518 5.55544C17.5308 6.87103 18 8.41775 18 10C18 12.1217 17.1572 14.1566 15.6569 15.6569C14.1566 17.1571 12.1217 18 10 18Z" fill="#8C949F"/>
<path d="M9.16998 13.44C9.2069 13.3876 9.24698 13.3375 9.28998 13.29C9.38294 13.1963 9.49354 13.1219 9.6154 13.0711C9.73726 13.0203 9.86797 12.9942 9.99998 12.9942C10.132 12.9942 10.2627 13.0203 10.3846 13.0711C10.5064 13.1219 10.617 13.1963 10.71 13.29C10.8027 13.3834 10.876 13.4943 10.9258 13.6161C10.9755 13.7379 11.0007 13.8684 11 14C11.0048 14.1294 10.9844 14.2584 10.94 14.38C10.8951 14.5041 10.8234 14.6168 10.7301 14.7101C10.6368 14.8034 10.5241 14.8751 10.4 14.92C10.2803 14.9729 10.1509 15.0002 10.02 15.0002C9.88911 15.0002 9.75968 14.9729 9.63998 14.92C9.51589 14.8751 9.40318 14.8034 9.30987 14.7101C9.21655 14.6168 9.14489 14.5041 9.09998 14.38C9.044 14.2613 9.0166 14.1312 9.01998 14C9.01507 13.9334 9.01507 13.8666 9.01998 13.8C9.03093 13.7374 9.05115 13.6767 9.07998 13.62C9.10187 13.5563 9.13213 13.4957 9.16998 13.44Z" fill="#8C949F"/>
<path d="M8.49889 5.40144C8.95531 5.13812 9.47305 4.99966 9.99998 5C10.7035 5.00546 11.3828 5.25801 11.919 5.71352C12.4552 6.16902 12.8142 6.79849 12.9334 7.49189C13.0525 8.18529 12.9242 8.89851 12.5708 9.50687C12.2173 10.1152 11.6614 10.58 11 10.82V11C11 11.2652 10.8946 11.5196 10.7071 11.7071C10.5196 11.8946 10.2652 12 9.99998 12C9.73476 12 9.48041 11.8946 9.29287 11.7071C9.10534 11.5196 8.99998 11.2652 8.99998 11V10C8.99998 9.73478 9.10534 9.48043 9.29287 9.29289C9.48041 9.10536 9.73476 9 9.99998 9C10.2652 9 10.5196 8.89464 10.7071 8.70711C10.8946 8.51957 11 8.26522 11 8C11 7.73479 10.8946 7.48043 10.7071 7.2929C10.5196 7.10536 10.2652 7 9.99998 7C9.82377 6.9993 9.65051 7.04518 9.49773 7.13298C9.34495 7.22078 9.21809 7.3474 9.12998 7.5C9.06747 7.61951 8.98142 7.72513 8.87703 7.81052C8.77263 7.89591 8.65205 7.9593 8.52252 7.99688C8.39299 8.03446 8.2572 8.04544 8.12331 8.02918C7.98943 8.01292 7.86022 7.96974 7.74345 7.90225C7.62669 7.83475 7.52478 7.74434 7.44387 7.63644C7.36295 7.52854 7.3047 7.40538 7.27261 7.27439C7.24052 7.14339 7.23527 7.00726 7.25716 6.87418C7.27904 6.7411 7.32763 6.61382 7.39998 6.5C7.66345 6.04366 8.04247 5.66477 8.49889 5.40144Z" fill="#8C949F"/>
</svg>
