<svg width="16" height="16" viewBox="0 0 16 16" fill="none" xmlns="http://www.w3.org/2000/svg">
<path fill-rule="evenodd" clip-rule="evenodd" d="M2.73096 7.77499C3.10822 8.50014 5.28904 10.9034 7.955 10.9034C10.621 10.9034 12.8018 8.50014 13.179 7.77499C12.8018 7.04919 10.621 4.64655 7.955 4.64655C5.28904 4.64655 3.10822 7.04919 2.73096 7.77499ZM1 7.775C1 6.60529 4.1294 3 7.95499 3C11.7806 3 14.91 6.60529 14.91 7.775C14.91 8.94471 11.7806 12.55 7.95499 12.55C4.1294 12.55 1 8.94471 1 7.775ZM5.5802 7.77502C5.5802 6.50125 6.64347 5.46985 7.95507 5.46985C9.26668 5.46985 10.3299 6.50125 10.3299 7.77502C10.3299 9.04813 9.26668 10.0802 7.95507 10.0802C6.64347 10.0802 5.5802 9.04813 5.5802 7.77502Z" fill="#8C949F"/>
</svg>
