<svg width="180" height="180" viewBox="0 0 180 180" fill="none" xmlns="http://www.w3.org/2000/svg">
<circle opacity="0.07" cx="90" cy="90" r="80" fill="#EB5757"/>
<circle cx="90" cy="90" r="80" fill="url(#paint0_radial_2473_6683)"/>
<path d="M90.0001 139.67C117.432 139.67 139.67 117.432 139.67 90C139.67 62.568 117.432 40.33 90.0001 40.33C62.5681 40.33 40.3301 62.568 40.3301 90C40.3301 117.432 62.5681 139.67 90.0001 139.67Z" fill="#EB5757"/>
<path d="M140 90C140 117.614 117.614 140 90 140C62.3858 140 40 117.614 40 90C40 62.3858 62.3858 40 90 40C117.614 40 140 62.3858 140 90ZM50 90C50 112.091 67.9086 130 90 130C112.091 130 130 112.091 130 90C130 67.9086 112.091 50 90 50C67.9086 50 50 67.9086 50 90Z" fill="white"/>
<path fill-rule="evenodd" clip-rule="evenodd" d="M90 98C89.4067 98 88.8266 98.1759 88.3333 98.5056C87.8399 98.8352 87.4554 99.3038 87.2284 99.852C87.0013 100.4 86.9419 101.003 87.0576 101.585C87.1734 102.167 87.4591 102.702 87.8787 103.121C88.2982 103.541 88.8328 103.827 89.4147 103.942C89.9967 104.058 90.5999 103.999 91.148 103.772C91.6962 103.545 92.1648 103.16 92.4944 102.667C92.824 102.173 93 101.593 93 101C93 100.204 92.6839 99.4413 92.1213 98.8787C91.5587 98.3161 90.7956 98 90 98Z" fill="white"/>
<path fill-rule="evenodd" clip-rule="evenodd" d="M90 74C88.26 74 86.94 75.14 87 76.56L87.47 91.91C87.5955 92.4796 87.9118 92.9892 88.3664 93.3545C88.821 93.7199 89.3868 93.919 89.97 93.919C90.5532 93.919 91.119 93.7199 91.5736 93.3545C92.0282 92.9892 92.3445 92.4796 92.47 91.91L92.97 76.56C93.04 75.14 91.7 74 89.97 74H90Z" fill="white"/>
<defs>
<radialGradient id="paint0_radial_2473_6683" cx="0" cy="0" r="1" gradientUnits="userSpaceOnUse" gradientTransform="translate(90 90) rotate(90) scale(80)">
<stop stop-color="#E24747"/>
<stop offset="1" stop-color="#EB5757" stop-opacity="0"/>
</radialGradient>
</defs>
</svg>
