<svg width="66" height="30" viewBox="0 0 66 30" fill="none" xmlns="http://www.w3.org/2000/svg">
<rect x="1" y="1.5" width="64" height="27" rx="13.5" fill="black"/>
<g clip-path="url(#clip0_1854_20033)">
<path d="M16.2586 6.83331C15.2009 6.83331 13.8868 7.48702 13.397 7.94695L13.5895 8.38439C13.5895 8.38439 12.0983 8.40429 11.3296 8.89904C10.561 9.39378 10.2105 9.73025 9.83199 10.5293C9.45294 10.5474 8.03172 11.1507 7.20865 11.7571C7.20865 11.7571 6.51683 14.3761 7.82712 15.5062L7 16.6418C7.20865 17.3568 8.10948 18.0833 9.00474 18.1699C9.40756 18.6581 8.62622 19.6279 8.62622 19.6279C8.95699 20.6777 11.1837 21.8317 12.5136 21.8317L12.3305 22.4498C12.3305 22.4498 13.8118 23.5284 16.2022 23.4277C18.2229 23.4933 19.8664 23.0107 20.2835 22.4498L20.0723 21.8317C21.918 21.5566 23.312 20.9549 24.0876 19.6776C24.0876 19.6776 23.51 18.4633 23.7117 18.1587C24.6069 18.0721 25.4441 17.1903 25.6667 16.8052L24.8546 15.527C25.5022 14.7995 25.8647 12.8802 25.3887 11.7571C24.5656 11.1507 23.1583 10.6575 22.7793 10.6394C22.6289 9.75217 21.6634 9.0585 21.6634 9.0585C20.7491 8.26336 19.0861 8.38439 19.0861 8.38439L19.2213 7.94695C18.7973 7.47434 17.4587 6.83331 16.2586 6.83331Z" fill="white"/>
<path d="M13.7921 9.31695C12.7338 9.04741 11.936 9.4163 11.2457 9.92385C10.554 10.4324 10.2811 11.0917 10.3418 11.3278C9.77615 11.0962 8.53427 11.8143 7.94312 12.1589C7.94312 12.1589 7.48566 14.3965 8.6551 15.2624C8.5943 15.8703 8.16552 16.5999 7.94312 16.7365C8.32862 17.3444 9.14547 17.5108 9.49143 17.3564C10.0697 18.157 9.79027 19.2419 9.46902 19.5878C10.3677 20.3993 12.5121 20.7396 13.1401 20.7904C13.1401 20.7904 12.5873 19.4946 12.3404 18.4269C11.6582 15.4759 12.0254 11.7938 12.0254 11.7938C12.0254 11.7938 10.4317 13.6489 11.3201 18.1213C11.4701 18.8765 11.682 19.6748 11.682 19.6748C11.5342 19.6015 11.1735 19.6459 10.5103 19.3104C10.7944 19.0044 10.6722 17.1897 9.8352 16.2992C9.8352 16.2992 9.43693 16.483 9.14457 16.3613C9.34127 16.2405 9.58688 15.4693 9.58688 14.8792C8.6404 14.3135 8.74081 13.2908 8.78762 12.753C9.25206 12.4514 10.085 11.9388 11.133 12.3864C11.1055 12.1325 11.1772 11.4569 11.4648 10.9838C11.4648 10.9838 11.8148 10.3747 12.6054 10.1837C13.3961 9.99259 13.7921 9.31695 13.7921 9.31695Z" fill="#333333"/>
<path d="M18.8744 9.31695C19.9327 9.04741 20.7305 9.4163 21.4208 9.92385C22.1125 10.4324 22.3854 11.0917 22.3247 11.3278C22.8904 11.0962 24.1322 11.8143 24.7234 12.1589C24.7234 12.1589 25.1808 14.3965 24.0114 15.2624C24.0722 15.8703 24.501 16.5999 24.7234 16.7365C24.3379 17.3444 23.521 17.5108 23.1751 17.3564C22.5968 18.157 22.8762 19.2419 23.1975 19.5878C22.2988 20.3993 20.1545 20.7396 19.5264 20.7904C19.5264 20.7904 20.0792 19.4946 20.3261 18.4269C21.0083 15.4759 20.6411 11.7938 20.6411 11.7938C20.6411 11.7938 22.2348 13.6489 21.3464 18.1213C21.1964 18.8765 20.9845 19.6748 20.9845 19.6748C21.1323 19.6015 21.493 19.6459 22.1562 19.3104C21.8721 19.0044 21.9943 17.1897 22.8313 16.2992C22.8313 16.2992 23.2296 16.483 23.5219 16.3613C23.3252 16.2405 23.0796 15.4693 23.0796 14.8792C24.0261 14.3135 23.9257 13.2908 23.8789 12.753C23.4144 12.4514 22.5815 11.9388 21.5335 12.3864C21.561 12.1325 21.4893 11.4569 21.2017 10.9838C21.2017 10.9838 20.8517 10.3747 20.0611 10.1837C19.2704 9.99259 18.8744 9.31695 18.8744 9.31695Z" fill="#333333"/>
<path fill-rule="evenodd" clip-rule="evenodd" d="M16.4192 11.0409C15.6572 11.0382 14.6509 11.241 14.6509 11.241L14.3486 8.23141L16.3828 7.61658L18.317 8.23141L18.1514 11.241C18.1514 11.241 17.1687 11.0436 16.4192 11.0409ZM16.4192 10.183C15.9967 10.1719 15.4529 10.2481 15.4529 10.2481L15.3286 8.8222L16.3828 8.53631L17.4293 8.8222V10.2481C17.4293 10.2481 16.8505 10.1944 16.4192 10.183Z" fill="#333333"/>
<path fill-rule="evenodd" clip-rule="evenodd" d="M16.3225 22.4778C18.0833 22.4572 19.2105 21.9327 19.2105 21.9327L18.5222 19.77C18.5222 19.77 17.0447 20.1982 16.333 20.1988C15.6214 20.1982 14.1674 19.77 14.1674 19.77L13.4556 21.9327C13.4556 21.9327 14.5617 22.4572 16.3225 22.4778ZM16.333 21.7561C17.3356 21.7521 17.9551 21.5464 18.2912 21.4101L18.1072 20.6688C17.6922 20.8051 16.9722 20.9556 16.333 20.961C15.6939 20.9556 14.9695 20.8434 14.5545 20.707L14.3942 21.4101C14.7304 21.5464 15.3305 21.7521 16.333 21.7561Z" fill="#333333"/>
<path fill-rule="evenodd" clip-rule="evenodd" d="M19.8973 12.189H12.7686C12.8238 12.266 13.0485 12.64 13.1289 12.8559C13.2095 13.0724 13.2688 13.2908 13.2715 13.4254C13.2737 13.532 13.2867 13.8628 13.3036 14.2953L13.3038 14.2995C13.3374 15.1572 13.3869 16.418 13.4008 17.1628C13.4069 17.4913 13.4799 17.9269 13.7435 18.2831C14.0118 18.6457 14.4651 18.909 15.1937 18.909H15.7062C15.7568 18.909 15.7917 18.922 15.8193 18.941C15.8487 18.9612 15.8759 18.9924 15.9032 19.0369C15.9308 19.082 15.9594 19.145 15.9862 19.2048C16.0105 19.2593 16.0376 19.3203 16.0698 19.3755C16.0807 19.3902 16.1248 19.4491 16.1659 19.4754C16.2099 19.5034 16.2649 19.52 16.3329 19.52C16.4023 19.52 16.458 19.5028 16.5022 19.4756C16.5439 19.4499 16.5856 19.39 16.5973 19.3755C16.6305 19.3184 16.6638 19.2555 16.688 19.1997C16.7142 19.1396 16.7401 19.0808 16.767 19.0357C16.7935 18.9912 16.8198 18.9604 16.8483 18.9405C16.875 18.922 16.9091 18.909 16.9596 18.909H17.4721C18.2007 18.909 18.654 18.6457 18.9223 18.2831C19.1859 17.9269 19.2589 17.4913 19.265 17.1628C19.2789 16.418 19.3284 15.1573 19.362 14.2997L19.3622 14.2957C19.3792 13.8631 19.3921 13.532 19.3943 13.4254C19.397 13.2908 19.4563 13.0724 19.537 12.8559C19.6173 12.64 19.842 12.266 19.8973 12.189ZM14.1253 13.1984C14.1169 13.1526 14.1076 13.1079 14.0981 13.0675H18.5878C18.5752 13.1122 18.5663 13.157 18.5599 13.1991C18.5439 13.3034 18.541 13.4711 18.541 13.4711C18.5061 14.3484 18.436 16.1753 18.436 17.0841C18.436 17.459 18.315 17.7015 18.1551 17.8491C17.9933 17.9986 17.7798 18.0621 17.5767 18.0556C17.5497 18.0548 17.4955 18.0539 17.4377 18.0529C17.3604 18.0516 17.2766 18.0503 17.243 18.0487C17.0387 18.0394 16.8403 18.0486 16.6677 18.096C16.5425 18.1304 16.4276 18.186 16.3345 18.2715C16.1168 18.0566 15.7658 17.9619 15.4064 17.9783C15.3729 17.9798 15.2806 17.9812 15.1949 17.9824C15.1289 17.9834 15.0668 17.9843 15.0387 17.9852C14.6569 17.9973 14.2705 17.6812 14.2705 17.0841C14.2705 16.0914 14.206 14.4251 14.1729 13.5699C14.1729 13.5699 14.149 13.3262 14.1253 13.1984Z" fill="#333333"/>
<path d="M14.0879 13.0674C14.0974 13.1079 14.1067 13.1525 14.1151 13.1983C14.1388 13.3262 14.1627 13.5699 14.1627 13.5699C14.1958 14.425 14.2603 16.0914 14.2603 17.0841C14.2603 17.6811 14.6467 17.9972 15.0285 17.9851C15.0566 17.9842 15.1187 17.9833 15.1847 17.9824C15.2704 17.9811 15.3627 17.9798 15.3962 17.9782C15.7556 17.9618 16.1066 18.0565 16.3243 18.2715C16.4174 18.1859 16.5323 18.1304 16.6575 18.096C16.8301 18.0485 17.0285 18.0393 17.2328 18.0487C17.2664 18.0502 17.3502 18.0516 17.4275 18.0529C17.4853 18.0538 17.5395 18.0547 17.5665 18.0556C17.7696 18.062 17.9831 17.9986 18.1449 17.8491C18.3048 17.7014 18.4258 17.459 18.4258 17.0841C18.4258 16.1753 18.4959 14.3483 18.5308 13.471C18.5308 13.471 18.5337 13.3033 18.5497 13.1991C18.5561 13.157 18.565 13.1121 18.5776 13.0674H14.0879Z" fill="#FFDD2D"/>
</g>
<path d="M34.8815 10.835H29.6665V19.165H32.204V16.925H34.8815C35.5115 16.925 36.124 16.9075 36.719 16.715C37.874 16.3475 38.7315 15.315 38.7315 13.915C38.7315 12.515 37.8915 11.5 36.754 11.0975C36.124 10.87 35.529 10.835 34.8815 10.835ZM32.204 14.965V12.8475H34.514C35.004 12.8475 35.284 12.9 35.5115 12.9875C35.914 13.145 36.1065 13.5125 36.1065 13.8975C36.1065 14.3175 35.879 14.72 35.4415 14.86C35.2315 14.93 34.9865 14.965 34.514 14.965H32.204Z" fill="white"/>
<path d="M42.3689 16.12L43.5764 12.76H43.7689L44.9764 16.12H42.3689ZM41.7389 17.9575H45.5889L46.0789 19.165H48.9314L45.5189 10.835H41.8089L38.3964 19.165H41.2664L41.7389 17.9575Z" fill="white"/>
<path d="M55.1079 10.835L53.0429 14.6325H52.9554L50.8729 10.835H47.9154L51.6779 16.96V19.165H54.3029V16.75L57.8729 10.835H55.1079Z" fill="white"/>
<rect x="1" y="1.5" width="64" height="27" rx="13.5" stroke="white" stroke-width="2"/>
<defs>
<clipPath id="clip0_1854_20033">
<rect width="18.6667" height="18.6667" fill="white" transform="translate(7 5.66669)"/>
</clipPath>
</defs>
</svg>
