<svg width="30" height="22" viewBox="0 0 30 22" fill="none" xmlns="http://www.w3.org/2000/svg">
<path d="M17.2546 3H4C1.79086 3 0 4.79086 0 7V17C0 19.2091 1.79086 21 4 21H22C24.2091 21 26 19.2091 26 17V13.3267C25.6793 13.479 25.3453 13.6076 25 13.7104V17C25 18.6569 23.6569 20 22 20H4C2.34315 20 1 18.6569 1 17V7C1 5.34315 2.34315 4 4 4H16.6736C16.84 3.64968 17.0346 3.31536 17.2546 3Z" fill="#8C949F"/>
<path d="M16.0708 8H0V12H18.1006C17.029 10.9499 16.2935 9.55787 16.0708 8Z" fill="#8C949F"/>
<path d="M3.45089 18C3.20097 18 3 17.7771 3 17.5C3 17.2229 3.20097 17 3.45089 17H10.5491C10.799 17 11 17.2229 11 17.5C11 17.7771 10.799 18 10.5491 18H3.45089Z" fill="#8C949F"/>
<path d="M3.45089 16C3.20097 16 3 15.7771 3 15.5C3 15.2229 3.20097 15 3.45089 15H10.5491C10.799 15 11 15.2229 11 15.5C11 15.7771 10.799 16 10.5491 16H3.45089Z" fill="#8C949F"/>
<path d="M29.5 7.00012C29.5 10.5892 26.5915 13.5001 23 13.5001C19.4109 13.5001 16.5 10.5916 16.5 7.00012C16.5 3.41102 19.4085 0.500122 23 0.500122C26.589 0.500122 29.5 3.41114 29.5 7.00012Z" stroke="#8C949F"/>
<path d="M18.186 5.316L19.512 4.8H19.818V9H19.14V5.586L18.186 5.982V5.316ZM23.1826 6.792C23.3986 6.872 23.5646 7 23.6806 7.176C23.8006 7.352 23.8606 7.562 23.8606 7.806C23.8606 8.066 23.7966 8.292 23.6686 8.484C23.5406 8.672 23.3606 8.818 23.1286 8.922C22.8966 9.022 22.6286 9.072 22.3246 9.072C21.8806 9.072 21.5066 8.958 21.2026 8.73C20.8986 8.502 20.7226 8.174 20.6746 7.746H21.3586C21.4066 7.982 21.5146 8.156 21.6826 8.268C21.8506 8.376 22.0626 8.43 22.3186 8.43C22.5946 8.43 22.8066 8.37 22.9546 8.25C23.1026 8.126 23.1766 7.958 23.1766 7.746C23.1766 7.346 22.9106 7.146 22.3786 7.146H21.8086V6.546H22.2586C22.7826 6.546 23.0446 6.368 23.0446 6.012C23.0446 5.82 22.9746 5.666 22.8346 5.55C22.6946 5.43 22.5006 5.37 22.2526 5.37C22.0286 5.37 21.8466 5.42 21.7066 5.52C21.5666 5.616 21.4686 5.776 21.4126 6H20.7286C20.7846 5.58 20.9526 5.264 21.2326 5.052C21.5126 4.836 21.8586 4.728 22.2706 4.728C22.5466 4.728 22.7946 4.78 23.0146 4.884C23.2386 4.984 23.4126 5.126 23.5366 5.31C23.6646 5.49 23.7286 5.696 23.7286 5.928C23.7286 6.124 23.6806 6.298 23.5846 6.45C23.4886 6.602 23.3546 6.716 23.1826 6.792ZM24.4143 5.448V4.8H27.3423V5.298L25.5183 9H24.7503L26.5323 5.448H24.4143Z" fill="#8C949F"/>
</svg>
