<svg width="180" height="180" viewBox="0 0 180 180" fill="none" xmlns="http://www.w3.org/2000/svg">
<g id="Show=Process">
<g id="Property 1=Process_3 1">
<g id="Group">
<g id="&#208;&#161;&#208;&#187;&#208;&#190;&#208;&#185; 1">
<g id="Property 1=Process">
<circle id="Ellipse 8" opacity="0.07" cx="90" cy="90" r="80" fill="#FFDF47"/>
<g id="Ellipse 7">
<circle id="Ellipse 9" cx="90" cy="90" r="80" fill="url(#paint0_radial_2473_6442)"/>
<path id="Vector" d="M90.0001 139.92C117.57 139.92 139.92 117.57 139.92 90C139.92 62.43 117.57 40.08 90.0001 40.08C62.43 40.08 40.0801 62.43 40.0801 90C40.0801 117.57 62.43 139.92 90.0001 139.92Z" fill="#FFDF47"/>
</g>
<g id="Animation">
<path id="Ellipse 8_2" opacity="0.25" d="M90 45C90 42.2386 92.2442 39.9741 94.9918 40.2498C103.117 41.065 110.946 43.8615 117.779 48.4265C126.001 53.9206 132.41 61.7295 136.194 70.8658C139.978 80.0021 140.969 90.0555 139.039 99.7545C137.11 109.454 132.348 118.363 125.355 125.355C118.363 132.348 109.454 137.11 99.7545 139.039C90.0555 140.969 80.0021 139.978 70.8658 136.194C61.7295 132.41 53.9206 126.001 48.4265 117.779C43.8615 110.946 41.065 103.117 40.2498 94.9918C39.9741 92.2442 42.2386 90 45 90V90C47.7614 90 49.9678 92.2472 50.3121 94.9871C51.0841 101.131 53.2757 107.036 56.7412 112.223C61.1365 118.801 67.3836 123.928 74.6927 126.955C82.0017 129.983 90.0444 130.775 97.8036 129.231C105.563 127.688 112.69 123.878 118.284 118.284C123.878 112.69 127.688 105.563 129.231 97.8036C130.775 90.0444 129.983 82.0017 126.955 74.6927C123.928 67.3836 118.801 61.1365 112.223 56.7412C107.036 53.2757 101.131 51.0841 94.9871 50.3121C92.2472 49.9678 90 47.7614 90 45V45Z" fill="white"/>
<path id="Ellipse 8_3" opacity="0.3" d="M90 45C90 42.2386 92.2441 39.9741 94.9918 40.2498C101.478 40.9006 107.792 42.8156 113.57 45.9039C120.821 49.78 127.005 55.3847 131.573 62.2215C136.142 69.0583 138.953 76.9162 139.759 85.0991C140.565 93.2821 139.341 101.538 136.194 109.134C133.047 116.731 128.076 123.434 121.72 128.651C115.364 133.867 107.819 137.435 99.7545 139.039C91.69 140.643 83.3543 140.234 75.4858 137.847C69.2165 135.945 63.398 132.835 58.351 128.708C56.2132 126.961 56.2276 123.772 58.1802 121.82V121.82C60.1328 119.867 63.282 119.896 65.4628 121.59C69.3151 124.582 73.6939 126.853 78.3886 128.278C84.6834 130.187 91.352 130.515 97.8036 129.231C104.255 127.948 110.291 125.093 115.376 120.92C120.461 116.747 124.438 111.385 126.955 105.307C129.472 99.23 130.452 92.6257 129.807 86.0793C129.163 79.5329 126.913 73.2466 123.259 67.7772C119.604 62.3077 114.657 57.824 108.856 54.7231C104.529 52.4105 99.8269 50.9203 94.9871 50.3121C92.2472 49.9678 90 47.7614 90 45V45Z" fill="white"/>
<path id="Ellipse 9_2" opacity="0.4" d="M90 45C90 42.2386 92.2441 39.9741 94.9917 40.2498C99.8454 40.7368 104.611 41.9324 109.134 43.806C115.2 46.3188 120.712 50.0017 125.355 54.6447C129.998 59.2876 133.681 64.7996 136.194 70.8658C138.707 76.9321 140 83.4339 140 90C140 96.5661 138.707 103.068 136.194 109.134C133.681 115.2 129.998 120.712 125.355 125.355C120.712 129.998 115.2 133.681 109.134 136.194C104.611 138.068 99.8454 139.263 94.9917 139.75C92.2441 140.026 90 137.761 90 135V135C90 132.239 92.2471 130.032 94.987 129.688C98.5264 129.243 101.998 128.326 105.307 126.955C110.16 124.945 114.57 121.999 118.284 118.284C121.999 114.57 124.945 110.16 126.955 105.307C128.965 100.454 130 95.2529 130 90C130 84.7471 128.965 79.5457 126.955 74.6927C124.945 69.8396 121.999 65.4301 118.284 61.7157C114.57 58.0014 110.16 55.055 105.307 53.0448C101.998 51.674 98.5264 50.7568 94.987 50.3121C92.2472 49.9678 90 47.7614 90 45V45Z" fill="white"/>
<path id="Ellipse 10" opacity="0.5" d="M90 45C90 42.2386 92.2442 39.9741 94.9918 40.2498C103.117 41.065 110.946 43.8615 117.779 48.4265C126.001 53.9206 132.41 61.7295 136.194 70.8658C139.978 80.0021 140.969 90.0555 139.039 99.7545C137.436 107.813 133.878 115.327 128.708 121.649C126.961 123.787 123.772 123.772 121.82 121.82V121.82C119.867 119.867 119.896 116.718 121.59 114.537C125.389 109.647 128.014 103.922 129.231 97.8036C130.775 90.0444 129.983 82.0017 126.955 74.6927C123.928 67.3836 118.801 61.1365 112.223 56.7412C107.036 53.2757 101.131 51.0841 94.9871 50.3121C92.2472 49.9678 90 47.7614 90 45V45Z" fill="white"/>
<path id="Ellipse 10_2" d="M90 45C90 42.2386 92.2441 39.9741 94.9917 40.2498C99.8454 40.7368 104.611 41.9324 109.134 43.806C115.2 46.3188 120.712 50.0017 125.355 54.6447C129.998 59.2876 133.681 64.7996 136.194 70.8658C138.068 75.3891 139.263 80.1546 139.75 85.0083C140.026 87.7559 137.761 90 135 90V90C132.239 90 130.032 87.7529 129.688 85.013C129.243 81.4736 128.326 78.0021 126.955 74.6927C124.945 69.8396 121.999 65.4301 118.284 61.7157C114.57 58.0014 110.16 55.055 105.307 53.0448C101.998 51.674 98.5264 50.7568 94.987 50.3121C92.2472 49.9678 90 47.7614 90 45V45Z" fill="white"/>
</g>
<g id="Arrows">
<path id="Rectangle 7" d="M90 65C90.5304 65 91.0391 65.2107 91.4142 65.5858C91.7893 65.9609 92 66.4696 92 67V95C92 95.5304 91.7893 96.0391 91.4142 96.4142C91.0391 96.7893 90.5304 97 90 97C89.4696 97 88.9609 96.7893 88.5858 96.4142C88.2107 96.0391 88 95.5304 88 95V67C88 66.4696 88.2107 65.9609 88.5858 65.5858C88.9609 65.2107 89.4696 65 90 65Z" fill="white"/>
<path id="Rectangle 8" d="M90 93H106C106.53 93 107.039 93.2107 107.414 93.5858C107.789 93.9609 108 94.4696 108 95C108 95.5304 107.789 96.0391 107.414 96.4142C107.039 96.7893 106.53 97 106 97H90C89.4696 97 88.9609 96.7893 88.5858 96.4142C88.2107 96.0391 88 95.5304 88 95C88 94.4696 88.2107 93.9609 88.5858 93.5858C88.9609 93.2107 89.4696 93 90 93Z" fill="white"/>
</g>
</g>
</g>
</g>
</g>
</g>
<defs>
<radialGradient id="paint0_radial_2473_6442" cx="0" cy="0" r="1" gradientUnits="userSpaceOnUse" gradientTransform="translate(90 90) rotate(90) scale(80)">
<stop stop-color="#FFDF47"/>
<stop offset="1" stop-color="#FFDF47" stop-opacity="0"/>
</radialGradient>
</defs>
</svg>
