<svg width="16" height="16" viewBox="0 0 16 16" fill="none" xmlns="http://www.w3.org/2000/svg">
<path fill-rule="evenodd" clip-rule="evenodd" d="M14 8C14 4.68629 11.3137 2 8 2C4.68629 2 2 4.68629 2 8C2 11.3137 4.68629 14 8 14C11.3137 14 14 11.3137 14 8ZM16 8C16 12.4183 12.4183 16 8 16C3.58172 16 0 12.4183 0 8C0 3.58172 3.58172 0 8 0C12.4183 0 16 3.58172 16 8ZM9 8V5C9 4.44772 8.55229 4 8 4C7.44772 4 7 4.44772 7 5V8C7 8.55229 7.44772 9 8 9C8.55229 9 9 8.55229 9 8ZM8 12C8.553 12 9 11.553 9 11C9 10.447 8.553 10 8 10C7.447 10 7 10.447 7 11C7 11.553 7.447 12 8 12Z" fill="#F1C90A"/>
</svg>
