<svg width="16" height="16" viewBox="0 0 16 16" fill="none" xmlns="http://www.w3.org/2000/svg">
<path d="M0 4C0 1.79086 1.79086 0 4 0H12C14.2091 0 16 1.79086 16 4V12C16 14.2091 14.2091 16 12 16H4C1.79086 16 0 14.2091 0 12V4Z" fill="#2E71FC"/>
<path fill-rule="evenodd" clip-rule="evenodd" d="M12.7641 5.23589C13.0786 5.5504 13.0786 6.06034 12.7641 6.37485L7.39499 11.744C7.08047 12.0585 6.57054 12.0585 6.25602 11.744L3.23589 8.72384C2.92137 8.40933 2.92137 7.8994 3.23589 7.58488C3.5504 7.27036 4.06034 7.27036 4.37485 7.58488L6.8255 10.0355L11.6251 5.23589C11.9397 4.92137 12.4496 4.92137 12.7641 5.23589Z" fill="white"/>
</svg>
